<?xml version="1.0" encoding="utf-8"?>
<!-- Generator: Adobe Illustrator 20.0.0, SVG Export Plug-In . SVG Version: 6.00 Build 0)  -->
<svg version="1.1" id="Layer_1" xmlns="http://www.w3.org/2000/svg" xmlns:xlink="http://www.w3.org/1999/xlink" x="0px" y="0px"
	 viewBox="0 0 1440 1400" style="enable-background:new 0 0 1440 1400;" xml:space="preserve">
<style type="text/css">
	.st0{fill:none;stroke:#DF3F40;stroke-width:4;stroke-miterlimit:10;}
	.st1{fill:#DF3F40;}
	.st2{fill:#8E8F96;}
	.st3{fill:none;stroke:#DF3F40;stroke-width:5;stroke-miterlimit:10;}
	.st4{fill:#DBC093;}
	.st5{fill:#302C2D;}
	.st6{fill:#00AEEF;}
	.st7{fill:#80966E;}
	.st8{fill:#C9BB92;}
	.st9{fill:#DAE2E9;}
	.st10{fill:none;stroke:#DAE2E9;stroke-width:3;stroke-miterlimit:10;}
	.st11{clip-path:url(#SVGID_2_);fill:none;stroke:#DAE2E9;stroke-width:3;stroke-miterlimit:10;}
	.st12{clip-path:url(#SVGID_4_);fill:none;stroke:#DAE2E9;stroke-width:3;stroke-miterlimit:10;}
	.st13{clip-path:url(#SVGID_6_);fill:none;stroke:#DAE2E9;stroke-width:3;stroke-miterlimit:10;}
	.st14{clip-path:url(#SVGID_8_);fill:none;stroke:#DAE2E9;stroke-width:3;stroke-miterlimit:10;}
	.st15{fill:#434245;}
	.st16{fill:#2E3192;}
	.st17{fill:#171616;}
	.st18{fill:#333031;}
	.st19{fill:none;stroke:#000000;stroke-width:5;stroke-miterlimit:10;}
	.st20{fill:#4950A2;}
</style>
<polygon points="317.8,919.5 310.8,928 275.2,926.5 242,924 253.5,913 253.5,877 273.2,851.8 343,886.5 318.8,912.2 "/>
<path class="st0" d="M257.7,587.7c17.1-44.9,120.7-209.3,246.8-297.7c76.4-53.5,160.7-52.9,210-55"/>
<ellipse class="st1" cx="407.1" cy="716.9" rx="194.4" ry="191"/>
<circle class="st2" cx="393.2" cy="715.4" r="190.5"/>
<path class="st3" d="M969.7,298c78-37.3,112-123,96.7-136.3c-11.6-10.1-34.7-2.7-52.7,6c-32.7,15.8-50.9,55.5-49.3,100"/>
<path class="st3" d="M753,241c111.6,40.1,162.8,49.5,188.7,50c0,0,36.4,0.7,36.6,6.7c0.1,2.2-7.2,3.3-7.7,7.7
	c-0.3,3.1,2.8,7.7,7.7,7.7c4.2,0,7.7-3.5,7.7-7.7"/>
<rect x="728.8" y="233" class="st4" width="26.5" height="15.8"/>
<polygon class="st4" points="965.8,390.2 958.1,396.2 957.8,396.2 957.8,396.2 955.1,380.1 967.6,380.1 "/>
<polygon class="st4" points="949.9,390.2 957.6,396.2 958,396.2 958,396.1 960.6,380.1 948.1,380.1 "/>
<image style="overflow:visible;" width="800" height="800" xlink:href="Hovalin/Creality-CR-10-Series-3D-Printer-Kit-Print-Size-300-400-500mm-DIY-Desktop-3D-Printer.jpg"  transform="matrix(1.7299 0 0 1.7299 -1932.6465 61.4662)">
</image>
<path d="M1294,422.5l-84.5-20c-6.6,0-12-5.4-12-12l24-94.5c0-6.6,5.4-12,12-12l60.5-27.2c6.6,0,12,5.4,12,12v141.7
	C1306,417.1,1300.6,422.5,1294,422.5z"/>
<ellipse cx="1314.8" cy="331.8" rx="33.8" ry="22.8"/>
<path d="M582.7,414.3l-63.4-53l-8-45.7c-4.7-4.7-4.7-12.3,0-17l64.2-50c4.7-4.7,12.3-4.7,17,0l141.2,74.6c4.7,4.7,4.7,12.3,0,17
	l-134,74C595,419,587.4,419,582.7,414.3z"/>
<path class="st5" d="M570.9,362h-51.1c-6.6,0-12-5.4-12-12v-53.3c0-6.6,5.4-12,12-12h51.1c6.6,0,12,5.4,12,12V350
	C582.9,356.6,577.5,362,570.9,362z"/>
<rect x="877.5" y="274.6" width="114.4" height="94.8"/>
<rect x="758.8" y="549.7" transform="matrix(3.213409e-02 -0.9995 0.9995 3.213409e-02 596.3759 1785.7758)" width="923" height="70.6"/>
<rect x="746.4" y="577.1" transform="matrix(3.213409e-02 -0.9995 0.9995 3.213409e-02 581.332 1770.6708)" class="st6" width="917.1" height="16.1"/>
<image style="overflow:visible;" width="500" height="500" xlink:href="Hovalin/creality3d-cr-10-high-accuracy-3d-desktop-printer-black-370046-.jpg"  transform="matrix(2.6976 0 0 2.6976 1572.3755 113.4902)">
</image>
<rect x="1729.4" y="694.1" transform="matrix(6.123234e-17 -1 1 6.123234e-17 1429.5756 2879.231)" width="850" height="61.5"/>
<rect x="1715.4" y="717.6" transform="matrix(6.123234e-17 -1 1 6.123234e-17 1411.9878 2863.3013)" class="st6" width="844.5" height="16.1"/>
<rect x="1747.4" y="718.1" transform="matrix(6.123234e-17 -1 1 6.123234e-17 1443.5409 2895.748)" class="st6" width="844.5" height="16.1"/>
<rect x="2323.3" y="662.2" transform="matrix(6.123234e-17 -1 1 6.123234e-17 2020.4191 3406.342)" width="780.2" height="61.5"/>
<rect x="2307.8" y="688.1" transform="matrix(6.123234e-17 -1 1 6.123234e-17 2000.5269 3392.7166)" class="st6" width="777.7" height="16.1"/>
<rect x="2339.8" y="688.5" transform="matrix(6.123234e-17 -1 1 6.123234e-17 2032.1154 3425.1282)" class="st6" width="777.7" height="16.1"/>
<rect x="2119.7" y="1247.5" width="724.8" height="40"/>
<rect x="602.7" y="85" width="672.4" height="40"/>
<rect x="604.9" y="97.5" class="st6" width="670.2" height="16.1"/>
<rect x="189.9" y="546.7" transform="matrix(-2.285134e-03 -1 1 -2.285134e-03 67.0398 1221.7269)" width="906.1" height="61.5"/>
<rect x="180.1" y="570.3" transform="matrix(-2.285134e-03 -1 1 -2.285134e-03 53.3319 1209.8944)" class="st6" width="900.3" height="16.1"/>
<rect x="206.1" y="570.7" transform="matrix(-2.285134e-03 -1 1 -2.285134e-03 78.989 1236.2996)" class="st6" width="900.3" height="16.1"/>
<rect x="776.4" y="578.6" transform="matrix(3.213409e-02 -0.9995 0.9995 3.213409e-02 608.8243 1802.0879)" class="st6" width="917.1" height="16.1"/>
<polygon points="701.1,1027.5 617,1220.7 518,1221 613.7,1029.7 "/>
<polygon class="st6" points="639.4,1028.4 548.9,1221.1 531.2,1221.1 623.3,1028.5 "/>
<polygon class="st6" points="665.9,1024.8 579.1,1221 561.5,1221 649.2,1025.6 "/>
<polygon points="1231.8,1030 1351.1,1219.5 1253,1225.8 1163.8,1049 "/>
<polygon class="st6" points="1198.3,1037.3 1308,1232.7 1294.4,1241.3 1182.2,1043 "/>
<polygon class="st6" points="1225.3,1041.3 1337.8,1220.3 1321.6,1224.4 1211.7,1049.8 "/>
<rect x="599.7" y="312.4" width="655.8" height="40"/>
<rect x="599.9" y="323.9" class="st6" width="655.6" height="16.1"/>
<rect x="635.3" y="1049" class="st7" width="606.1" height="12.1"/>
<rect x="501.1" y="1220.4" width="873.7" height="60.4"/>
<rect x="501.2" y="1232.9" class="st6" width="873.5" height="8.1"/>
<polygon class="st8" points="1241.5,1050 635.5,1049.5 713,903 1139,903 "/>
<ellipse cx="564.7" cy="1282" rx="27" ry="14.3"/>
<ellipse cx="1307" cy="1280.3" rx="27" ry="14.3"/>
<rect x="885" y="1185" width="121.3" height="38"/>
<polygon points="985,1200.2 899.2,1199.8 897.5,1061.2 966,1061.2 "/>
<ellipse cx="881.4" cy="1076.5" rx="20.9" ry="11.5"/>
<ellipse cx="984.4" cy="1076" rx="20.9" ry="11.5"/>
<rect x="698.8" y="1060.9" width="467.1" height="11.5"/>
<rect x="-527.3" y="-5.2" width="100.5" height="83"/>
<circle class="st9" cx="-514.7" cy="4.3" r="7.7"/>
<circle class="st9" cx="-515.4" cy="62.6" r="7.7"/>
<circle class="st9" cx="-458.7" cy="61.7" r="7.7"/>
<circle class="st9" cx="-458.7" cy="2.4" r="7.7"/>
<circle class="st10" cx="-487.2" cy="33.7" r="26.7"/>
<circle class="st10" cx="-487" cy="33.7" r="16.5"/>
<g>
	<defs>
		<rect id="SVGID_1_" x="-538.3" y="31.2" width="109" height="31.5"/>
	</defs>
	<clipPath id="SVGID_2_">
		<use xlink:href="#SVGID_1_"  style="overflow:visible;"/>
	</clipPath>
	<path class="st11" d="M-448.2,86.1l-26.9,26.9c-4.7,4.7-12.3,4.7-17,0l-29.5-29.5c-4.7-4.7-4.7-12.3,0-17l26.9-26.9
		c4.7-4.7,12.3-4.7,17,0l29.5,29.5C-443.5,73.8-443.5,81.4-448.2,86.1z"/>
</g>
<g>
	<defs>
		
			<rect id="SVGID_3_" x="-542.7" y="0.2" transform="matrix(-1 -1.224647e-16 1.224647e-16 -1 -976.3333 31.8229)" width="109" height="31.5"/>
	</defs>
	<clipPath id="SVGID_4_">
		<use xlink:href="#SVGID_3_"  style="overflow:visible;"/>
	</clipPath>
	<path class="st12" d="M-523.8-23.3l26.9-26.9c4.7-4.7,12.3-4.7,17,0l29.5,29.5c4.7,4.7,4.7,12.3,0,17l-26.9,26.9
		c-4.7,4.7-12.3,4.7-17,0l-29.5-29.5C-528.5-11-528.5-18.6-523.8-23.3z"/>
</g>
<polygon class="st9" points="-471.2,88.2 -478.9,94.2 -479.2,94.2 -479.2,94.2 -481.9,78.1 -469.4,78.1 "/>
<rect x="909.7" y="291.9" width="100.5" height="89"/>
<circle class="st9" cx="922.3" cy="307.3" r="7.7"/>
<circle class="st9" cx="921.6" cy="365.6" r="7.7"/>
<circle class="st9" cx="978.3" cy="364.7" r="7.7"/>
<circle class="st10" cx="949.8" cy="336.7" r="26.7"/>
<circle class="st10" cx="950" cy="336.7" r="16.5"/>
<g>
	<defs>
		<rect id="SVGID_5_" x="898.7" y="334.2" width="109" height="31.5"/>
	</defs>
	<clipPath id="SVGID_6_">
		<use xlink:href="#SVGID_5_"  style="overflow:visible;"/>
	</clipPath>
	<path class="st13" d="M988.8,389.1L961.9,416c-4.7,4.7-12.3,4.7-17,0l-29.5-29.5c-4.7-4.7-4.7-12.3,0-17l26.9-26.9
		c4.7-4.7,12.3-4.7,17,0l29.5,29.5C993.5,376.8,993.5,384.4,988.8,389.1z"/>
</g>
<g>
	<defs>
		
			<rect id="SVGID_7_" x="894.3" y="303.2" transform="matrix(-1 -1.224647e-16 1.224647e-16 -1 1897.6666 637.8229)" width="109" height="31.5"/>
	</defs>
	<clipPath id="SVGID_8_">
		<use xlink:href="#SVGID_7_"  style="overflow:visible;"/>
	</clipPath>
	<path class="st14" d="M913.2,279.7l26.9-26.9c4.7-4.7,12.3-4.7,17,0l29.5,29.5c4.7,4.7,4.7,12.3,0,17l-26.9,26.9
		c-4.7,4.7-12.3,4.7-17,0l-29.5-29.5C908.5,292,908.5,284.4,913.2,279.7z"/>
</g>
<circle class="st15" cx="393.2" cy="715.4" r="53.8"/>
<polygon points="307.6,1245 28,1237.7 88.2,1028.3 349.3,1032.4 "/>
<polygon points="310,1350 35,1343 28.2,1235.8 305.8,1243.2 "/>
<polygon points="460,1104 310,1349.5 305,1246.1 346.8,1032.8 453.5,917.2 "/>
<polygon points="347,1033.5 87.5,1029 256.5,910.5 453.5,918 "/>
<polygon class="st16" points="274.2,1171.8 94.2,1168.7 124.2,1057.4 293.5,1060.9 "/>
<ellipse class="st17" cx="236.4" cy="1200" rx="32.9" ry="31.9"/>
<circle class="st18" cx="232.9" cy="1192.5" r="29.4"/>
<rect x="671.2" y="225.6" width="58" height="92.1"/>
<rect x="957.5" y="267.5" class="st4" width="18.5" height="7.5"/>
<path class="st19" d="M709,1108c104.7-30.9,159.2-41.6,163.5-32c0.2,0.4,0.3,0.9,0.3,1.4"/>
<ellipse cx="714.2" cy="1111.5" rx="15.8" ry="8.5"/>
<ellipse cx="709.3" cy="1091.9" rx="21.3" ry="13.5"/>
<polygon points="862.7,1070 701,1109.7 696.3,1060.7 866.7,1060.7 "/>
<path class="st19" d="M1155.3,1108.3c-104.7-30.9-159.2-41.6-163.5-32c-0.2,0.4-0.3,0.9-0.3,1.4"/>
<ellipse cx="1150.2" cy="1111.8" rx="15.8" ry="8.5"/>
<ellipse cx="1155" cy="1092.2" rx="21.3" ry="13.5"/>
<polygon points="1001.7,1070.3 1163.3,1110 1168,1061 997.7,1061 "/>
<circle class="st9" cx="981.7" cy="306.4" r="7.7"/>
<circle class="st9" cx="582.1" cy="265.7" r="7.7"/>
<circle class="st9" cx="583.4" cy="393" r="7.7"/>
<circle class="st9" cx="572.2" cy="351" r="5.5"/>
<circle class="st9" cx="555.9" cy="334.3" r="5.5"/>
<circle class="st9" cx="556.7" cy="306" r="5.5"/>
<circle class="st9" cx="572" cy="292.9" r="5.5"/>
<circle class="st9" cx="517.8" cy="293.6" r="5.5"/>
<circle class="st9" cx="516.9" cy="351" r="5.5"/>
<circle class="st9" cx="1291" cy="276" r="7.7"/>
<circle class="st9" cx="1289.6" cy="400.5" r="7.7"/>
<circle class="st9" cx="1276" cy="329" r="7.7"/>
<circle class="st9" cx="1299.2" cy="328.7" r="7.7"/>
<circle class="st9" cx="1327.8" cy="329.7" r="7.7"/>
<polygon class="st20" points="1228.3,1031.7 644.3,1032.3 706.3,915.7 1148.3,916.3 "/>
</svg>
