<?xml version="1.0" encoding="UTF-8"?>
<!-- Generator: Adobe Illustrator 20.0.0, SVG Export Plug-In . SVG Version: 6.00 Build 0)  -->
<svg version="1.1" id="Layer_1" xmlns="http://www.w3.org/2000/svg" xmlns:xlink="http://www.w3.org/1999/xlink" x="0px" y="0px" viewBox="0 0 180.5 180.5" style="enable-background:new 0 0 180.5 180.5;" xml:space="preserve">
<style type="text/css">
	.st0{opacity:.05; fill:#152836;}
	.st1{fill:#FFFFFF;}
	.st2{fill:#1E1E1E;}
</style>
<rect class="st0" width="180.5" height="180.5"/>
<path class="st1" d="M0,0v180.5h180.5V0H0z M148.9,156.7l-34-17.1l0.3-33L50,106.9l15.9,7.8l-0.3,42l-33.2-17.1V23.8l33.7,16.4  l-0.3,32.7h49.1V23.8l34,16.6V156.7z"/>
<path class="st2" d="M-684.8,1373.2v-360.7h-360.7v360.7H-684.8z M-982.5,1060l67.9,34.2l-0.5,65.9l130.3-0.5l-31.7-15.6l0.5-84  l66.4,34.2v231.5l-67.4-32.7l0.5-65.4h-98.1v98.1l-67.9-33.2V1060z"/>
<path class="st2" d="M-1767,1012.5v360.7h360.7v-360.7H-1767z M-1703.9,1093.2l67.9-33.2v98.1h98.1l-0.5-65.4l67.4-32.7v231.5  l-66.4,34.2l-0.5-84l31.7-15.6l-130.3-0.5l0.5,65.9l-67.9,34.2V1093.2z"/>
<path class="st2" d="M-1045.5,1373.2v-360.7h-360.7v360.7H-1045.5z M-1108.5,1292.5l-67.9,33.2v-98.1h-98.1l0.5,65.4l-67.4,32.7  v-231.5l66.4-34.2l0.5,84l-31.7,15.6l130.3,0.5l-0.5-65.9l67.9-34.2V1292.5z"/>
<path class="st2" d="M-410.2,1774v360.7h360.7V1774H-410.2z M-112.5,2087.2l-67.9-34.2l0.5-65.9l-130.3,0.5l31.7,15.6l-0.5,84  l-66.4-34.2v-231.5l67.4,32.7l-0.5,65.4h98.1v-98.1l67.9,33.2V2087.2z"/>
<path class="st2" d="M1031,2134.8V1774H670.3v360.7H1031z M733.3,1821.5l67.9,34.2l-0.5,65.9l130.3-0.5l-31.7-15.6l0.5-84l66.4,34.2  v231.5l-67.4-32.7l0.5-65.4h-98.1v98.1l-67.9-33.2V1821.5z"/>
<path class="st2" d="M-51.2,1774v360.7h360.7V1774H-51.2z M11.8,1854.8l67.9-33.2v98.1h98.1l-0.5-65.4l67.4-32.7V2053l-66.4,34.2  l-0.5-84l31.7-15.6l-130.3-0.5l0.5,65.9l-67.9,34.2V1854.8z"/>
<path class="st2" d="M670.3,2134.7V1774H309.5v360.7H670.3z M607.2,2054l-67.9,33.2v-98.1h-98.1l0.5,65.4l-67.4,32.7v-231.5  l66.4-34.2l0.5,84l-31.7,15.6l130.3,0.5l-0.5-65.9l67.9-34.2V2054z"/>
</svg>